<?xml version="1.0" encoding="UTF-8" standalone="no"?>
<!-- Created with Inkscape (http://www.inkscape.org/) -->

<svg
   width="57.955082mm"
   height="13.661311mm"
   viewBox="0 0 57.955082 13.661311"
   version="1.1"
   id="svg5"
   inkscape:version="1.1.1 (3bf5ae0d25, 2021-09-20)"
   sodipodi:docname="whitesign.svg"
   xmlns:inkscape="http://www.inkscape.org/namespaces/inkscape"
   xmlns:sodipodi="http://sodipodi.sourceforge.net/DTD/sodipodi-0.dtd"
   xmlns="http://www.w3.org/2000/svg"
   xmlns:svg="http://www.w3.org/2000/svg">
  <sodipodi:namedview
     id="namedview7"
     pagecolor="#ffffff"
     bordercolor="#666666"
     borderopacity="1.0"
     inkscape:pageshadow="2"
     inkscape:pageopacity="0.0"
     inkscape:pagecheckerboard="0"
     inkscape:document-units="mm"
     showgrid="false"
     inkscape:showpageshadow="false"
     showguides="true"
     inkscape:guide-bbox="true"
     inkscape:zoom="0.38583845"
     inkscape:cx="252.69644"
     inkscape:cy="32.396979"
     inkscape:window-width="1366"
     inkscape:window-height="705"
     inkscape:window-x="-8"
     inkscape:window-y="-8"
     inkscape:window-maximized="1"
     inkscape:current-layer="layer1"
     fit-margin-top="0"
     fit-margin-left="0"
     fit-margin-right="0"
     fit-margin-bottom="0" />
  <defs
     id="defs2" />
  <g
     inkscape:label="Layer 1"
     inkscape:groupmode="layer"
     id="layer1"
     transform="translate(-58.943383,-93.306152)">
    <g
       id="g1741"
       style="fill:#ffffff">
      <path
         style="fill:#ffffff;stroke:none;stroke-width:0.0211667"
         d="m 99.223991,96.63489 c -0.15698,0.79947 -0.21887,1.62621 -0.32428,2.43417 -0.20474,1.56936 -0.39539,3.15734 -0.39539,4.74133 0,0.59059 0.0404,1.20624 0.27464,1.75683 0.0671,0.15768 0.28488,0.60572 0.50658,0.36168 0.0746,-0.0821 0.0414,-0.18841 -8.1e-4,-0.27702 -0.10331,-0.21685 -0.18848,-0.41862 -0.23376,-0.65616 -0.0924,-0.48492 -0.081,-0.96918 -0.081,-1.4605 0,-0.38658 -0.018,-0.77815 0.003,-1.16416 0.0873,-1.61318 0.22085,-3.22024 0.40637,-4.826 0.0463,-0.40052 0.13456,-0.77352 0.22566,-1.16417 0.0271,-0.1161 0.12795,-0.32087 0.0364,-0.42693 -0.0756,-0.0876 -0.19511,-0.027 -0.26501,0.0335 -0.21528,0.18622 -0.41042,0.40617 -0.618,0.60225 -0.57243,0.54079 -1.0595,1.15627 -1.53708,1.78088 -0.22833,0.2986 -0.49261,0.58717 -0.68542,0.91017 h -0.0212 c 0.0294,-0.22471 0.0212,-0.45115 0.0212,-0.67733 -4e-5,-0.20547 -0.0142,-0.41019 -0.0424,-0.61384 -0.10596,-0.76593 -0.2751,-1.83616 -1.14291,-2.08041 -0.12499,-0.0352 -0.25112,-0.0555 -0.381,-0.057 -0.17247,-0.002 -0.34113,0.0197 -0.508,0.0631 0.0413,-0.23827 0.0678,-0.47915 0.0919,-0.71966 0.0294,-0.29325 0.0515,-0.59407 0.0332,-0.88883 -0.008,-0.12228 -0.11093,-0.26922 -0.21694,-0.11945 -0.0868,0.12262 -0.0935,0.31412 -0.11823,0.45794 -0.0485,0.28116 -0.0936,0.56363 -0.12982,0.84667 -0.0194,0.1516 -0.0136,0.3411 -0.0753,0.48228 -0.0725,0.16584 -0.33609,0.24044 -0.47221,0.34881 -0.0438,0.0349 -0.14558,0.11512 -0.10585,0.18309 0.0309,0.0528 0.10926,0.0143 0.14719,-0.006 0.13648,-0.0732 0.2579,-0.16408 0.40162,-0.22496 l -0.2021,1.62983 -0.4964,4.02167 c -0.25932,-0.30869 -0.63049,-0.4438 -1.016,-0.52042 -0.75584,-0.15024 -1.5009,-0.0352 -2.2225,0.21018 -0.31141,0.1059 -0.6276,0.22985 -0.91005,0.39984 -0.11235,0.0676 -0.27331,0.17659 -0.19344,0.32925 0.11719,0.22394 0.42665,-10e-4 0.57432,-0.0685 0.57822,-0.26399 1.13915,-0.51459 1.778,-0.58539 0.50671,-0.0562 1.12014,-0.0336 1.54447,0.28378 0.13472,0.1008 0.23518,0.23601 0.32812,0.3745 0.0748,0.11143 0.22664,0.30239 0.36523,0.15126 0.0862,-0.0939 0.0817,-0.26484 0.0973,-0.38396 0.0406,-0.31045 0.0828,-0.62063 0.12154,-0.93134 0.14844,-1.19134 0.27135,-2.38281 0.39128,-3.57716 0.034,-0.33833 0.0673,-0.67719 0.096,-1.016 0.0103,-0.12218 -0.007,-0.32849 0.0848,-0.42259 0.0865,-0.0888 0.28406,-0.0935 0.40035,-0.1022 0.12002,-0.009 0.24181,-0.003 0.35983,0.0207 0.94996,0.19277 1.04121,1.34601 1.10632,2.13394 0.0146,0.17676 0.0155,0.35183 0.0155,0.52917 0,0.22007 -0.0113,0.43762 -0.0386,0.65616 -0.0177,0.14133 -0.0367,0.29183 -0.0942,0.42334 -0.0816,0.18694 -0.20798,0.34681 -0.25245,0.55033 -0.0238,0.10901 -0.036,0.33672 0.13136,0.33672 0.12204,0 0.18002,-0.15983 0.21725,-0.25205 0.12065,-0.29879 0.19753,-0.58981 0.39914,-0.84667 0.81678,-1.04051 1.68681,-2.04938 2.62194,-2.9845 m 2.984499,4.86833 c -0.0319,0.10275 -0.0831,0.22467 -0.0724,0.33401 0.008,0.0866 0.0867,0.10649 0.13604,0.0347 0.0889,-0.12926 0.10454,-0.32681 0.15109,-0.47455 0.0317,-0.10042 0.0934,-0.18458 0.14514,-0.27517 h 0.0212 c 0,0.15549 -0.007,0.31249 0.0251,0.46567 0.085,0.41122 0.46584,0.54392 0.84271,0.42615 0.54676,-0.17086 0.93563,-0.68369 1.31233,-1.08232 -0.0409,0.15338 -0.0693,0.3081 -0.0885,0.46567 -0.0306,0.25175 -0.009,0.67181 0.32133,0.70749 0.14361,0.0155 0.29483,-0.0503 0.42331,-0.10627 0.61802,-0.26952 1.14433,-0.76484 1.67217,-1.17272 0,0.20551 -0.002,0.40911 0.0182,0.61383 0.012,0.12163 0.027,0.24247 0.0625,0.35983 0.11193,0.36922 0.43194,0.46203 0.76593,0.29689 0.19336,-0.0956 0.34354,-0.24784 0.48933,-0.40291 0.20212,-0.21499 0.3922,-0.43758 0.56477,-0.67714 0.11018,-0.15295 0.20756,-0.39023 0.35895,-0.5043 0.0975,-0.0734 0.25078,-0.0425 0.36495,-0.049 0.18147,-0.0103 0.35391,-0.0589 0.52917,-0.10291 -0.11684,0.3698 -0.28067,0.72024 -0.36633,1.10067 -0.0358,0.15921 -0.075,0.37791 0.0196,0.52436 0.14309,0.22144 0.50736,0.1248 0.70654,0.0482 0.58187,-0.22371 1.15232,-0.66307 1.60867,-1.08054 -0.0978,0.37372 -0.18034,0.81037 0.23283,1.02697 0.0934,0.0489 0.19389,0.0691 0.2957,0.092 0.0836,0.0188 0.16912,0.0719 0.25654,0.0607 0.0785,-0.01 0.15409,-0.0499 0.23093,-0.0692 0.52133,-0.13105 0.96287,-0.38119 1.35467,-0.75064 0.002,0.13445 0.0119,0.27089 0.0428,0.40217 0.0188,0.0802 0.0457,0.16063 0.0874,0.23203 0.2703,0.46348 0.86699,0.18643 1.22449,0.006 0.0787,-0.0397 0.15579,-0.0822 0.23284,-0.12497 0.18626,-0.10321 0.37528,-0.20303 0.54991,-0.32542 0.0707,-0.0495 0.16531,-0.11389 0.16975,-0.20961 0.004,-0.0849 -0.0705,-0.13676 -0.14965,-0.12503 -0.11345,0.0168 -0.22182,0.10816 -0.31601,0.168 -0.31179,0.19808 -0.62865,0.41914 -0.97367,0.5555 -0.17568,0.0694 -0.38206,0.0862 -0.49763,-0.0945 -0.18351,-0.28749 -0.0671,-0.69213 0.008,-0.99185 0.0222,-0.0896 0.0174,-0.22318 -0.10393,-0.23068 -0.15113,-0.009 -0.25865,0.23946 -0.34226,0.33577 -0.23707,0.27375 -0.5188,0.53145 -0.8418,0.6992 0.27898,-0.33246 0.59732,-0.66326 0.69808,-1.10067 0.0554,-0.24017 0.0245,-0.52999 -0.23263,-0.63764 -0.0868,-0.0363 -0.18245,-0.0393 -0.27495,-0.0393 -0.12383,-2e-5 -0.24088,0.0181 -0.35983,0.0522 -0.21971,0.0629 -0.42397,0.15822 -0.61384,0.28543 -0.0874,0.0585 -0.16383,0.13489 -0.254,0.18866 -0.0933,0.0556 -0.20362,0.0319 -0.29633,0.088 -0.11557,0.0701 -0.21336,0.17884 -0.3175,0.26462 -0.2449,0.20164 -0.48789,0.40734 -0.74083,0.59887 -0.21844,0.16538 -0.4481,0.34322 -0.6985,0.45735 -0.0997,0.0454 -0.22479,0.0986 -0.33677,0.0857 -0.20574,-0.0236 -0.0986,-0.3092 -0.0679,-0.43381 0.08,-0.32459 0.18669,-0.63936 0.30289,-0.9525 0.0383,-0.10317 0.13843,-0.28084 0.0667,-0.38763 -0.0637,-0.0944 -0.20066,-0.0294 -0.28236,-0.001 -0.25781,0.0886 -0.51059,0.13467 -0.78317,0.13492 0.0925,-0.23129 0.18699,-0.45551 0.24568,-0.6985 0.0353,-0.14611 0.0587,-0.29373 0.0565,-0.4445 -0.004,-0.30552 -0.13555,-0.67511 -0.5138,-0.57772 -0.0675,0.0174 -0.13136,0.0474 -0.19045,0.084 -0.32098,0.19863 -0.53118,0.55871 -0.62465,0.91704 -0.0394,0.15101 -0.0671,0.317 -0.005,0.46563 0.0896,0.21304 0.31128,0.33985 0.52335,0.40221 -0.13037,0.22559 -0.26731,0.44797 -0.42446,0.65616 -0.18609,0.24657 -0.38288,0.49901 -0.63387,0.68303 -0.0781,0.0573 -0.22312,0.15901 -0.32153,0.0913 -0.0674,-0.0464 -0.083,-0.14927 -0.0928,-0.22401 -0.0261,-0.19894 -0.0143,-0.39359 -0.01,-0.59266 0.0187,-0.80516 0.17007,-1.59182 0.23349,-2.39184 0.23349,-0.0885 0.0705,-0.47299 0.30173,-0.53881 0.18876,-0.0538 0.41406,-0.025 0.60843,-0.0356 0.47915,-0.026 0.95938,-0.0334 1.43934,-0.0398 0.16107,-0.002 0.32575,-0.0126 0.48641,-0.0227 0.0495,-0.003 0.13758,-0.009 0.15282,-0.0692 0.018,-0.071 -0.0847,-0.0903 -0.13229,-0.0949 -0.1596,-0.0155 -0.32555,-0.003 -0.48578,-0.003 h -2.11666 c 0.16546,-0.57423 0.22932,-1.18532 0.28473,-1.778 0.0132,-0.14167 0.0453,-0.30142 0.0269,-0.44309 -0.008,-0.0597 -0.0348,-0.12475 -0.10363,-0.12937 -0.07,-0.005 -0.11762,0.0528 -0.14461,0.11011 -0.0612,0.12988 -0.0854,0.28137 -0.11913,0.42001 -0.0734,0.3014 -0.12517,0.60719 -0.19128,0.91017 -0.0666,0.30527 -0.14973,0.61972 -0.17632,0.93133 -0.27959,0 -0.56923,0.004 -0.84662,0.0406 -0.0953,0.0125 -0.26636,0.0534 -0.2217,0.18875 0.0358,0.10833 0.17043,0.11047 0.26399,0.10627 0.24744,-0.011 0.49331,-0.0513 0.74083,-0.0605 l -0.23916,1.37584 -0.12067,0.99483 c -0.22769,0.0228 -0.38337,0.20288 -0.55033,0.34371 -0.30328,0.25575 -0.60543,0.51386 -0.93134,0.74087 -0.13915,0.0969 -0.38468,0.30702 -0.56769,0.28101 -0.18882,-0.0269 -0.11891,-0.33318 -0.10285,-0.45542 0.0523,-0.39819 0.16309,-0.80268 0.33926,-1.16417 0.0452,-0.0927 0.15801,-0.29261 0.005,-0.3528 -0.0701,-0.0276 -0.14004,0.0173 -0.18805,0.0652 -0.11296,0.11275 -0.19735,0.26418 -0.29036,0.39342 -0.35211,0.48933 -0.72741,1.00874 -1.22748,1.35848 -0.20735,0.14501 -0.56925,0.27063 -0.71814,-0.0262 -0.11542,-0.23011 -0.0419,-0.61003 0.0241,-0.84546 0.0317,-0.11303 0.12782,-0.27597 0.0731,-0.39326 -0.037,-0.0793 -0.1285,-0.0835 -0.19562,-0.0406 -0.11526,0.0736 -0.19906,0.23216 -0.26294,0.34923 -0.0722,-0.23262 -0.0858,-0.45847 -0.25031,-0.65377 -0.24875,-0.29539 -0.67078,-0.32483 -1.01969,-0.22437 -0.66097,0.19027 -1.09467,0.8092 -1.18798,1.47081 -0.059,0.41808 0.1056,0.86986 0.57415,0.92413 0.0989,0.0115 0.1989,0.004 0.29633,-0.0154 0.18257,-0.0357 0.36399,-0.10119 0.52917,-0.18643 0.26302,-0.13572 0.50438,-0.30813 0.71967,-0.51067 m -1.85215,0.127 c -0.0932,-0.56386 0.30543,-1.24852 0.79381,-1.50497 0.44478,-0.23355 1.04801,-0.14186 1.14874,0.42547 0.0219,0.1233 0.0345,0.28236 -0.009,0.40217 -0.0485,0.13493 -0.17279,0.24028 -0.2724,0.33797 -0.24858,0.24377 -0.54258,0.46951 -0.86779,0.60043 -0.29529,0.11887 -0.72707,0.14252 -0.79381,-0.26107 m 4.49334,-2.94225 c 0.0835,0.38166 0.48572,0.34692 0.72219,0.13784 0.14091,-0.12457 0.26896,-0.30501 0.28539,-0.49759 0.007,-0.0836 -0.0173,-0.16353 -0.0207,-0.24642 -0.003,-0.0729 0.0157,-0.14656 -0.003,-0.21859 -0.065,-0.25525 -0.3897,-0.20815 -0.55508,-0.0931 -0.25508,0.17744 -0.49949,0.5965 -0.4292,0.91789 m 0.57614,-0.67725 0.0635,0.0847 v 0.0212 c -0.10005,0.11346 -0.35638,0.35861 -0.10583,0.4445 -0.11291,0.15116 -0.25343,0.11623 -0.21504,-0.0847 0.034,-0.17796 0.13566,-0.33523 0.25737,-0.4656 m 3.683,2.11667 c -0.13439,-0.0401 -0.29504,-0.10611 -0.36563,-0.23652 -0.11386,-0.21029 0.0699,-0.54203 0.18478,-0.71596 0.0735,-0.11132 0.2754,-0.39901 0.4416,-0.34663 0.0559,0.0176 0.0682,0.0855 0.0736,0.13572 0.0129,0.11991 -0.005,0.24228 -0.0315,0.35906 -0.0244,0.1082 -0.0568,0.21355 -0.0953,0.31749 -0.0613,0.16527 -0.12959,0.3287 -0.20748,0.48684 m 1.143,0.21166 0.0212,0.0212 -0.0212,-0.0212 m 1.9685,0.59267 0.0212,0.0212 -0.0212,-0.0212 m 0.18224,0.57146 c -0.0212,-0.15473 0.0398,-0.3265 0.1016,-0.46563 0.17844,-0.40064 0.50885,-0.69111 0.90149,-0.87399 0.18627,-0.0868 0.70125,-0.2548 0.76243,0.0707 0.0229,0.12241 -0.0222,0.26588 -0.0629,0.38001 -0.11811,0.33098 -0.3484,0.60994 -0.5806,0.86783 -0.0959,0.10655 -0.20151,0.23772 -0.33062,0.30491 -0.24765,0.12899 -0.74782,0.0364 -0.79143,-0.28378 m 1.25709,0.10587 0.0212,0.0212 z"
         id="path1186" />
      <path
         style="fill:#ffffff;stroke:none;stroke-width:0.0332808"
         d="m 75.707304,105.28071 c 3.867446,-0.34144 7.773543,-0.4608 11.721486,-0.50919 4.280122,-0.0524 8.622882,-0.003 12.82039,0.3751 1.86424,0.16783 3.78567,0.36802 5.54677,0.66954 0.43281,0.0741 0.84165,0.18432 1.27691,0.25153 0.16168,0.025 0.37194,-6.8e-4 0.31471,-0.0868 -0.0428,-0.0645 -0.20668,-0.10585 -0.33763,-0.13883 -0.29901,-0.0753 -0.62061,-0.13619 -0.94002,-0.19569 -1.37874,-0.25688 -2.83016,-0.43051 -4.2909,-0.59262 -6.106538,-0.67774 -12.683708,-0.71914 -18.94277,-0.41188 -1.852886,0.091 -3.722954,0.18597 -5.546777,0.34963 -0.386735,0.0347 -0.769604,0.0745 -1.150821,0.11804 -0.256144,0.0293 -0.464819,0.0525 -0.471348,0.1712 z"
         id="path1446" />
      <path
         style="fill:#ffffff;stroke:none;stroke-width:0.0211667"
         d="m 67.521815,100.33171 c -0.0061,0.4303 -0.08204,0.86523 -0.138599,1.29116 -0.07406,0.55764 -0.143955,1.11582 -0.227584,1.67217 -0.10378,0.69026 -0.220515,1.3959 -0.226293,2.0955 -0.0033,0.39844 -0.0019,0.82144 0.112585,1.2065 0.04236,0.14252 0.11248,0.35615 0.28956,0.36982 0.118216,0.009 0.212154,-0.084 0.209508,-0.20093 -0.0032,-0.14139 -0.09076,-0.2819 -0.114004,-0.42289 -0.04951,-0.3003 -0.05012,-0.62808 -0.02642,-0.93134 0.133096,-1.70332 0.370692,-3.39741 0.502243,-5.10116 0.402907,0 0.803656,-0.0212 1.2065,-0.0212 0.07334,0 0.363919,0.0373 0.363919,-0.086 0,-0.12188 -0.291254,-0.0834 -0.363919,-0.0834 -0.402929,0 -0.803804,-0.0212 -1.2065,-0.0212 0.0436,-1.183305 0.02925,-2.430655 -0.389001,-3.556005 -0.147659,-0.39728 -0.400156,-0.9035 -0.817499,-1.07211 -0.135276,-0.0546 -0.280204,-0.0497 -0.423333,-0.0497 0.119909,-0.27032 0.225446,-0.54845 0.328739,-0.8255 0.06775,-0.18172 0.134747,-0.36511 0.192321,-0.55034 0.05766,-0.18548 0.140652,-0.41569 0.112395,-0.61241 -0.02386,-0.1661 -0.198374,-0.15848 -0.280797,-0.0363 -0.0972,0.14414 -0.13316,0.35918 -0.196237,0.52167 -0.176339,0.45415 -0.333967,0.91627 -0.495575,1.37584 -0.03435,0.0977 -0.06511,0.20506 -0.128354,0.28869 -0.05199,0.0687 -0.153903,0.12514 -0.172128,0.21448 -0.01306,0.064 0.04026,0.0792 0.0893,0.0895 -0.280479,0.82976 -0.588835,1.65079 -0.881062,2.4765 -0.180912,0.51111 -0.333968,1.04756 -0.552471,1.54375 -0.111887,0.254105 -0.527749,0.0503 -0.603547,0.321575 -0.06267,0.22441 0.278003,0.2096 0.407247,0.23017 l -0.550333,1.69333 c -0.123508,-0.17911 -0.250889,-0.34906 -0.423376,-0.48444 -0.793369,-0.6227 -2.004335,-0.58549 -2.942124,-0.41222 -0.323237,0.0597 -0.642853,0.13765 -0.952496,0.2486 -0.121833,0.0436 -0.291349,0.10846 -0.280611,0.26679 0.02148,0.31665 0.473266,0.12503 0.64044,0.0791 0.769493,-0.21139 1.527768,-0.37522 2.328333,-0.27043 0.456248,0.0597 0.902145,0.25921 1.181524,0.63611 0.07677,0.10358 0.144949,0.21722 0.189251,0.33865 0.03012,0.0826 0.0418,0.17478 0.08657,0.2514 0.04083,0.0699 0.109135,0.12175 0.193399,0.11388 0.22932,-0.0214 0.308547,-0.4023 0.376513,-0.57694 0.168275,-0.43247 0.316653,-0.87221 0.463359,-1.31233 0.05296,-0.1589 0.09053,-0.43264 0.216874,-0.54951 0.06782,-0.0627 0.169143,-0.0626 0.255842,-0.0639 0.17689,-0.003 0.352636,-0.0172 0.529166,-0.0209 0.706015,-0.0147 1.410103,-0.0642 2.116667,-0.0642 m 0.02117,-0.23282 -2.836334,0.0212 c 0.08513,-0.421175 0.253704,-0.840725 0.387943,-1.248835 0.23349,-0.70991 0.464587,-1.42285 0.68199,-2.13784 0.08221,-0.27034 0.186076,-0.5222 0.290872,-0.78316 0.04291,-0.10679 0.07178,-0.27026 0.191643,-0.31755 0.158666,-0.0626 0.35215,0.006 0.47915,0.10362 0.24983,0.19193 0.404495,0.49813 0.516446,0.78543 0.295592,0.75865 0.330623,1.60902 0.330623,2.413 0,0.38591 0.0185,0.78181 -0.04233,1.164165 m 4.402666,0.65616 c -0.08744,0.45019 -0.24729,0.89082 -0.253111,1.35467 -0.0023,0.18609 0.01577,0.42858 0.173504,0.5535 0.237426,0.18805 0.589787,-0.0463 0.799274,-0.17278 0.668041,-0.4035 1.234673,-0.94852 1.778,-1.50256 -0.02866,0.24209 -0.09527,0.47977 -0.138536,0.71967 -0.04528,0.25116 -0.08393,0.50605 -0.07161,0.76195 0.0047,0.0974 0.03816,0.2459 0.168254,0.22625 0.183473,-0.0277 0.30444,-0.34057 0.389192,-0.4802 0.245089,-0.40378 0.556366,-0.79352 0.901911,-1.11605 0.12173,-0.11365 0.245449,-0.2299 0.380175,-0.32811 0.04172,-0.0304 0.108606,-0.0876 0.16529,-0.0686 0.113496,0.038 0.106257,0.33909 0.109136,0.4333 0.0134,0.43881 -0.05241,0.91309 0.10759,1.33345 0.131233,0.34481 0.454787,0.34803 0.761428,0.24831 0.562653,-0.18294 1.063435,-0.59461 1.545167,-0.92559 -0.0036,0.16383 -0.01905,0.32633 0.02519,0.48683 0.09059,0.3295 0.383964,0.42367 0.694479,0.36027 0.463761,-0.0947 0.887941,-0.37936 1.227666,-0.69893 -0.0326,0.087 -0.07006,0.17073 -0.111336,0.25402 -0.03979,0.0807 -0.107527,0.17762 -0.109644,0.27037 -0.0015,0.0597 0.04636,0.0994 0.102659,0.0696 0.05567,-0.0294 0.08826,-0.0979 0.11811,-0.15007 0.189653,-0.3322 0.287231,-0.75118 0.571711,-1.01544 2.12e-4,0.085 0.0011,0.16941 0.0099,0.25402 0.04255,0.40572 0.169545,1.11459 0.730885,1.00048 0.07408,-0.0151 0.145838,-0.0441 0.211666,-0.081 0.10795,-0.0603 0.20574,-0.14166 0.29591,-0.22563 0.40259,-0.37484 0.72009,-0.85255 1.023409,-1.30776 0.278765,-0.41812 0.587586,-0.87812 0.755015,-1.354655 h 0.02117 l -0.09716,0.910155 -0.220345,1.54517 c -0.06477,-0.0602 -0.139911,-0.14444 -0.231775,-0.15989 -0.09652,-0.0162 -0.15875,0.0726 -0.126365,0.1604 0.05059,0.13773 0.21844,0.19961 0.260985,0.34003 0.05122,0.16891 -0.08086,0.35275 -0.003,0.52396 0.06117,0.13412 0.235373,0.15003 0.324062,0.0344 0.07895,-0.10274 0.08996,-0.26731 0.114723,-0.39091 0.330623,0.0869 0.65913,0.0959 0.994833,0.0324 0.374862,-0.0709 0.753322,-0.22102 1.03378,-0.48575 0.603885,-0.56972 0.359834,-1.77971 -0.504613,-1.93859 -0.49403,-0.0908 -0.906357,0.27157 -1.227667,0.59279 0.0038,-0.26807 0.04106,-0.53685 0.05927,-0.80432 0.01672,-0.246515 0.01207,-0.494905 0.03111,-0.740835 0.01926,-0.24604 -0.0017,-0.49655 0.03408,-0.74084 0.05334,-0.36229 0.163619,-0.70946 0.171239,-1.0795 0.0032,-0.16258 0.0049,-0.58968 -0.272204,-0.50457 -0.162983,0.05 -0.193886,0.25396 -0.207856,0.39874 -0.04064,0.41523 -0.03217,0.80203 -0.153247,1.2065 -0.305858,1.02047 -0.824653,1.978425 -1.419648,2.857495 -0.145204,0.21461 -0.303107,0.42024 -0.475615,0.61375 -0.103082,0.11576 -0.222674,0.24498 -0.370629,0.30261 -0.216958,0.0845 -0.325966,-0.12913 -0.379095,-0.30253 -0.06625,-0.21545 -0.102235,-0.45207 -0.107103,-0.67733 -0.003,-0.14398 0.02985,-0.32571 -0.01968,-0.46304 -0.04424,-0.12203 -0.15113,-0.12226 -0.256117,-0.0873 -0.0025,-0.10823 -0.01185,-0.21465 -0.04847,-0.3175 -0.211244,-0.594785 -0.902124,-0.497415 -1.348529,-0.25678 -0.272203,0.14669 -0.505036,0.36983 -0.688763,0.61661 -0.09546,0.12802 -0.164253,0.2786 -0.273262,0.39569 -0.125518,0.13475 -0.288501,0.24217 -0.434975,0.35289 -0.2297,0.17363 -0.458893,0.34747 -0.6985,0.5073 -0.195283,0.13026 -0.394927,0.2736 -0.613833,0.36169 -0.08911,0.0359 -0.197548,0.0733 -0.29464,0.0529 -0.204322,-0.0428 -0.222123,-0.33961 -0.231606,-0.50634 -0.02307,-0.40636 0.0069,-0.82559 -0.06244,-1.22767 -0.03109,-0.1804 -0.109834,-0.38348 -0.321522,-0.39499 -0.215413,-0.0117 -0.415925,0.15852 -0.571458,0.28649 -0.419332,0.34506 -0.822409,0.81348 -1.0795,1.29383 h -0.02117 c 0.04885,-0.24676 0.09574,-0.4939 0.143742,-0.74083 0.04786,-0.24613 0.08206,-0.49782 0.144019,-0.74083 0.02525,-0.099 0.07184,-0.23186 -0.02894,-0.30641 -0.0679,-0.0502 -0.149754,-0.0227 -0.210058,0.025 -0.124926,0.0988 -0.218779,0.24794 -0.325015,0.36608 -0.473011,0.52588 -0.962659,1.03102 -1.52292,1.46511 -0.148802,0.11527 -0.300461,0.23186 -0.465667,0.32299 -0.06407,0.0353 -0.149098,0.0855 -0.225657,0.0698 -0.164,-0.0336 -0.110977,-0.36803 -0.09872,-0.4821 0.04134,-0.38475 0.117518,-0.76901 0.217001,-1.143 0.02978,-0.11195 0.120946,-0.3237 0.0036,-0.41512 -0.09728,-0.0757 -0.253323,0.0372 -0.340699,0.0823 -0.277304,0.143 -0.575373,0.26367 -0.889,0.29051 0.08141,-0.24081 0.178668,-0.47559 0.250593,-0.71966 0.03901,-0.132395 0.07163,-0.265345 0.09072,-0.402165 0.03721,-0.26647 -0.03802,-0.69249 -0.404813,-0.59161 -0.05222,0.0144 -0.10179,0.0378 -0.148145,0.0656 -0.108268,0.0649 -0.19776,0.15443 -0.277792,0.25108 -0.05607,0.0677 -0.108648,0.13847 -0.157585,0.21147 -0.227394,0.33929 -0.533464,0.940075 -0.13225,1.274315 0.119444,0.0995 0.270913,0.13458 0.419439,0.16502 l -0.542184,1.37583 -0.114342,0.33604 0.065,0.10651 0.09987,-0.0873 0.143954,-0.33411 0.383985,-0.889 0.204893,-0.42837 0.37266,-0.10363 0.6985,-0.23 m -0.910102,-1.481495 c 0.05994,0.18064 0.02614,0.36797 -0.01461,0.55034 -0.07207,0.322555 -0.175768,0.647485 -0.302895,0.952495 -0.141436,-0.0324 -0.307446,-0.0615 -0.390822,-0.1951 -0.08162,-0.1307 -0.02618,-0.30645 0.021,-0.4399 0.118618,-0.335575 0.34036,-0.734605 0.687324,-0.867835 m 0.910166,1.460495 0.02117,0.0212 -0.02117,-0.0212 m 2.497667,0.23284 0.02117,0.0212 -0.02117,-0.0212 m 5.08,-0.0847 c 0.204258,-0.32013 0.590127,-0.58789 0.973667,-0.62776 0.503766,-0.0524 0.636058,0.46564 0.50546,0.86059 -0.04932,0.14973 -0.169545,0.26877 -0.27559,0.381 -0.201719,0.21366 -0.41275,0.41777 -0.653204,0.58776 -0.193251,0.13665 -0.419311,0.26847 -0.656166,0.30689 -0.109009,0.0177 -0.236432,0.0125 -0.310939,-0.0811 -0.162771,-0.2043 -0.04572,-0.69526 0.126365,-0.86087 0.166159,-0.15974 0.526415,-0.31786 0.290407,-0.5665 m 4.8895,1.4605 c 0.03493,-0.29636 0.118745,-0.57584 0.242993,-0.84667 0.0908,-0.19765 0.207857,-0.38923 0.354542,-0.55025 0.205105,-0.22481 0.494242,-0.46232 0.820632,-0.41281 0.629285,0.0955 0.795655,0.97635 0.409998,1.40138 -0.243417,0.2681 -0.612775,0.38494 -0.960332,0.43747 -0.299931,0.0453 -0.5715,0.0292 -0.867833,-0.0291 z"
         id="path1638" />
    </g>
  </g>
</svg>
